# xmcd
#
# Track frame offsets: 
#        150
#        28894
#        47801
#        90892
#        122253
#        149656
#        174521
#        200284
#        222213
#
# Disc length: 3175 seconds
#
# Revision: 3
# Processed by: cddbd v1.5.2PL0 Copyright (c) Steve Scherf et al.
# Submitted via: ExactAudioCopy v0.95b4
#
DISCID=780c6509
DTITLE=Clapton, Eric - Live In San Diego - CD 01
DYEAR=2016
DGENRE=Blues Rock
TTITLE0=Tell The Truth
TTITLE1=Key To The Highway
TTITLE2=Got To Get Better In A Little While
TTITLE3=Little Wing
TTITLE4=Anyday
TTITLE5=Anyway The Wind Blows
TTITLE6=After Midnight
TTITLE7=Who Am I Telling You?
TTITLE8=Don't Cry Sister
EXTD=Year: 2016 [CD 1 from 2]\n\n\n\n\n\n                             
EXTD=                           www.ericclapton.com
EXTT0=
EXTT1=
EXTT2=
EXTT3=
EXTT4=
EXTT5=
EXTT6=
EXTT7=
EXTT8=
PLAYORDER=
